# xmcd
#
# Track frame offsets: 
#        150
#        24176
#        40449
#        57679
#        83076
#        106107
#        130807
#        150797
#        162777
#        176529
#        197732
#        217067
#        239054
#        268953
#        288165
#        322965
#        342555
#
# Disc length: 4773 seconds
#
# Revision: 2
# Processed by: cddbd v1.5.2PL0 Copyright (c) Steve Scherf et al.
# Submitted via: ExactAudioCopy v1.3
#
DISCID=f212a311
DTITLE=Various Artist - Type Akella Presents - Special Edition - CD1
DYEAR=2015
DGENRE=Blues
TTITLE0=Blue On Black - Wrecking Ball
TTITLE1=Blues Traveler - Devil In The Details
TTITLE2=Mal Eastick - Heavy Heart
TTITLE3=Paul Black And The Flip King - HoneyMoon Blues
TTITLE4=Rehab All Stars - Burden
TTITLE5=Paul Camilleri - Anoather Sad Goodby
TTITLE6=The Eric Jerardi Band - Tortured Soul
TTITLE7=Tommy Castro - Don't Turn Your Heater Down
TTITLE8=Paul Camilleri - Never Seen That Look
TTITLE9=Tommy Castro - Like An Angel
TTITLE10=Rick Vito - Meet Me At Midnite
TTITLE11=Blues Divine - Sure Sign
TTITLE12=Slim Chance and The Gamblers - You Can't Smoke It Here
TTITLE13=Blues Trackers - Desperate Man
TTITLE14=Paul Black And The Flip King - Dead Shrimp Blues
TTITLE15=Theryl 'Houseman' De Clouet - Tough On You, Tough On Me
TTITLE16=Blueville - Butterfly Blues
EXTD=
EXTT0=
EXTT1=
EXTT2=
EXTT3=
EXTT4=
EXTT5=
EXTT6=
EXTT7=
EXTT8=
EXTT9=
EXTT10=
EXTT11=
EXTT12=
EXTT13=
EXTT14=
EXTT15=
EXTT16=
PLAYORDER=
